P3
4 4
255
223
0
0
223
0
0
223
0
0
223
0
0
0
223
0
0
0
223
0
0
223
0
223
0
0
0
223
0
223
0
0
223
0
0
0
223
223
118
0
223
118
0
118
0
223
118
0
223
